<?xml version="1.0" encoding="UTF-8" standalone="no"?>
<!DOCTYPE svg PUBLIC "-//W3C//DTD SVG 1.1//EN" "http://www.w3.org/Graphics/SVG/1.1/DTD/svg11.dtd">
<svg width="100%" height="100%" viewBox="0 0 1965 2233" version="1.1" xmlns="http://www.w3.org/2000/svg" xmlns:xlink="http://www.w3.org/1999/xlink" xml:space="preserve" xmlns:serif="http://www.serif.com/" style="fill-rule:evenodd;clip-rule:evenodd;stroke-linecap:round;stroke-linejoin:round;stroke-miterlimit:1.5;">
    <g id="Artboard1" transform="matrix(1,0,0,1,-546.274,-440.732)">
        <rect x="546.274" y="440.732" width="1964.66" height="2232.92" style="fill:none;"/>
        <g transform="matrix(2.08057,0,0,2.08057,-440.565,-156.578)">
            <path id="mt" d="M767.892,311.427C768.061,298.684 778.439,288.443 791.183,288.443L963.074,288.443C974.775,288.443 984.266,297.92 984.283,309.622C984.374,372.103 984.636,551.326 984.636,551.326L895.656,551.326C895.656,551.326 895.371,423.737 895.292,388.393C895.281,383.409 891.276,379.354 886.293,379.282C866.684,378.995 819.489,378.306 790.689,377.886C777.608,377.695 767.154,366.945 767.327,353.863C767.502,340.724 767.718,324.454 767.892,311.427Z" 
            style="fill:#67000D;stroke:black;stroke-width:2px;"/>
        </g>
        <g transform="matrix(2.08057,0,0,2.08057,-470.008,-477.759)">
            <path id="tb" d="M998.787,705.698C998.787,705.698 998.467,859.812 998.411,886.627C998.406,889.256 998.685,891.877 999.244,894.446C1002.19,907.978 1012.15,953.776 1017.65,979.054C1018.56,983.226 1021.3,986.763 1025.12,988.676C1028.94,990.588 1033.42,990.671 1037.3,988.9C1049.41,983.377 1064.01,976.723 1064.01,976.723L1087.71,1029.38C1087.71,1029.38 1071.24,1038.92 1064.11,1043.05C1063.27,1043.54 1062.65,1044.35 1062.41,1045.3C1062.17,1046.25 1062.32,1047.26 1062.83,1048.09C1066.89,1054.75 1075.9,1069.53 1075.9,1069.53L1016.21,1103.99C1016.21,1103.99 981.612,1037.8 964.198,1004.49C962.448,1001.14 958.906,999.122 955.133,999.319C951.36,999.515 948.047,1001.89 946.654,1005.4C937.766,1027.8 924.219,1061.95 922.505,1066.26C922.385,1066.57 922.27,1066.87 922.161,1067.18C920.568,1071.65 907.903,1107.21 907.903,1107.21L845.088,1078.84C845.088,1078.84 845.089,1078.84 845.09,1078.84C845.983,1077.26 845.799,1075.3 844.629,1073.92C843.46,1072.55 841.554,1072.05 839.859,1072.67C835.651,1074.23 831.851,1075.64 831.851,1075.64L824.07,1026.85C824.07,1026.85 834.377,1016.56 842.002,1008.95C843.973,1006.98 844.956,1004.23 844.682,1001.46C844.407,998.687 842.903,996.185 840.585,994.643C832.503,989.267 822.167,982.392 822.167,982.392L853.58,933.291C853.58,933.291 874.678,945.243 888.685,953.177C891.389,954.708 894.68,954.783 897.45,953.374C900.22,951.966 902.099,949.263 902.455,946.177C904.44,928.946 907.669,900.933 908.524,893.513C908.666,892.28 908.74,891.04 908.748,889.798C908.859,870.378 909.807,705.698 909.807,705.698L998.787,705.698Z" 
            style="fill:#CB181D;stroke:black;stroke-width:2px;"/>
        </g>       
        <g transform="matrix(-0.76342,1.19331,-1.19331,-0.76342,3597.02,1095.82)">
            <path id="ru-c" d="M1193.11,1371.26C1189.02,1361.22 1186.46,1350.57 1185.58,1339.65C1182.04,1295.78 1176.13,1222.3 1176.13,1222.3L1090.52,1222.3C1090.52,1222.3 1084.6,1295.78 1081.06,1339.65C1080.18,1350.57 1077.63,1361.22 1073.53,1371.26L1193.11,1371.26Z" 
            style="fill:#FFF5F0;stroke:black;stroke-width:2.94px;"/>
        </g>
        <g transform="matrix(-0.76342,1.19331,-1.19331,-0.76342,3597.02,1095.82)">
            <path id="ru-p" d="M1073.53,1371.26C1069.8,1380.38 1064.8,1388.99 1058.63,1396.82C1048.92,1409.13 1037.75,1423.31 1030.26,1432.81C1024.65,1439.93 1017.37,1445.55 1009.07,1449.19C1003.66,1451.57 997.06,1454.45 990.437,1457.36C970.837,1465.95 958.077,1485.21 957.815,1506.61C957.495,1532.74 957.054,1568.7 956.701,1597.59C956.329,1627.94 971.178,1656.46 996.257,1673.57C996.257,1673.57 996.257,1673.57 996.258,1673.57C1078.93,1729.96 1187.71,1729.96 1270.38,1673.57C1270.38,1673.57 1270.38,1673.57 1270.38,1673.57C1295.46,1656.46 1310.31,1627.94 1309.94,1597.59C1309.59,1568.7 1309.15,1532.74 1308.83,1506.61C1308.56,1485.21 1295.8,1465.95 1276.2,1457.36C1269.58,1454.45 1262.99,1451.57 1257.57,1449.19C1249.27,1445.55 1241.99,1439.93 1236.38,1432.81C1228.89,1423.31 1217.72,1409.13 1208.01,1396.82C1201.84,1388.99 1196.84,1380.38 1193.11,1371.26L1073.53,1371.26Z" 
            style="fill:#FCBBA1;stroke:black;stroke-width:2.94px;"/>
        </g>
        <g transform="matrix(0.189096,1.18576,-1.18576,0.189096,2487.66,134.441)">
            <path id="rm-c" d="M1193.11,1371.26C1189.02,1361.22 1186.46,1350.57 1185.58,1339.65C1182.04,1295.78 1176.13,1222.3 1176.13,1222.3L1090.52,1222.3C1090.52,1222.3 1084.6,1295.78 1081.06,1339.65C1080.18,1350.57 1077.63,1361.22 1073.53,1371.26L1193.11,1371.26Z" 
            style="fill:#FEE0D2;stroke:black;stroke-width:3.47px;"/>
        </g>
        <g transform="matrix(0.189096,1.18576,-1.18576,0.189096,2487.66,134.441)">
            <path id="rm-p" d="M1073.53,1371.26C1069.8,1380.38 1064.8,1388.99 1058.63,1396.82C1048.92,1409.13 1037.75,1423.31 1030.26,1432.81C1024.65,1439.93 1017.37,1445.55 1009.07,1449.19C1003.66,1451.57 997.06,1454.45 990.437,1457.36C970.837,1465.95 958.077,1485.21 957.815,1506.61C957.495,1532.74 957.054,1568.7 956.701,1597.59C956.329,1627.94 971.178,1656.46 996.257,1673.57C996.257,1673.57 996.257,1673.57 996.258,1673.57C1078.93,1729.96 1187.71,1729.96 1270.38,1673.57C1270.38,1673.57 1270.38,1673.57 1270.38,1673.57C1295.46,1656.46 1310.31,1627.94 1309.94,1597.59C1309.59,1568.7 1309.15,1532.74 1308.83,1506.61C1308.56,1485.21 1295.8,1465.95 1276.2,1457.36C1269.58,1454.45 1262.99,1451.57 1257.57,1449.19C1249.27,1445.55 1241.99,1439.93 1236.38,1432.81C1228.89,1423.31 1217.72,1409.13 1208.01,1396.82C1201.84,1388.99 1196.84,1380.38 1193.11,1371.26L1073.53,1371.26Z" 
            style="fill:#FCBBA1;stroke:black;stroke-width:3.47px;"/>
        </g>
        <g transform="matrix(1.52661,0.689544,-0.689544,1.52661,466.291,-851.093)">
            <path id="rl-c" d="M1193.11,1371.26C1189.02,1361.22 1186.46,1350.57 1185.58,1339.65C1182.04,1295.78 1176.13,1222.3 1176.13,1222.3L1090.52,1222.3C1090.52,1222.3 1084.6,1295.78 1081.06,1339.65C1080.18,1350.57 1077.63,1361.22 1073.53,1371.26L1193.11,1371.26Z" 
            style="fill:#FCBBA1;stroke:black;stroke-width:2.49px;"/>
        </g>
        <g transform="matrix(1.52661,0.689544,-0.689544,1.52661,466.291,-851.093)">
            <path id="rl-p" d="M1073.53,1371.26C1069.8,1380.38 1064.8,1388.99 1058.63,1396.82C1048.92,1409.13 1037.75,1423.31 1030.26,1432.81C1024.65,1439.93 1017.37,1445.55 1009.07,1449.19C1003.66,1451.57 997.06,1454.45 990.437,1457.36C970.837,1465.95 958.077,1485.21 957.815,1506.61C957.495,1532.74 957.054,1568.7 956.701,1597.59C956.329,1627.94 971.178,1656.46 996.257,1673.57C996.257,1673.57 996.257,1673.57 996.258,1673.57C1078.93,1729.96 1187.71,1729.96 1270.38,1673.57C1270.38,1673.57 1270.38,1673.57 1270.38,1673.57C1295.46,1656.46 1310.31,1627.94 1309.94,1597.59C1309.59,1568.7 1309.15,1532.74 1308.83,1506.61C1308.56,1485.21 1295.8,1465.95 1276.2,1457.36C1269.58,1454.45 1262.99,1451.57 1257.57,1449.19C1249.27,1445.55 1241.99,1439.93 1236.38,1432.81C1228.89,1423.31 1217.72,1409.13 1208.01,1396.82C1201.84,1388.99 1196.84,1380.38 1193.11,1371.26L1073.53,1371.26Z" 
            style="fill:#FEE0D2;stroke:black;stroke-width:2.49px;"/>
        </g>
        <g transform="matrix(-0.581342,-1.29183,1.29183,-0.581342,848.008,3783.28)">
            <path id="lu-c" d="M1193.11,1371.26C1189.02,1361.22 1186.46,1350.57 1185.58,1339.65C1182.04,1295.78 1176.13,1222.3 1176.13,1222.3L1090.52,1222.3C1090.52,1222.3 1084.6,1295.78 1081.06,1339.65C1080.18,1350.57 1077.63,1361.22 1073.53,1371.26L1193.11,1371.26Z" 
            style="fill:#FFF5F0;stroke:black;stroke-width:2.94px;"/>
        </g>
        <g transform="matrix(-0.581342,-1.29183,1.29183,-0.581342,848.008,3783.28)">
            <path id="lu-p" d="M1073.53,1371.26C1069.8,1380.38 1064.8,1388.99 1058.63,1396.82C1048.92,1409.13 1037.75,1423.31 1030.26,1432.81C1024.65,1439.93 1017.37,1445.55 1009.07,1449.19C1003.66,1451.57 997.06,1454.45 990.437,1457.36C970.837,1465.95 958.077,1485.21 957.815,1506.61C957.495,1532.74 957.054,1568.7 956.701,1597.59C956.329,1627.94 971.178,1656.46 996.257,1673.57C996.257,1673.57 996.257,1673.57 996.258,1673.57C1078.93,1729.96 1187.71,1729.96 1270.38,1673.57C1270.38,1673.57 1270.38,1673.57 1270.38,1673.57C1295.46,1656.46 1310.31,1627.94 1309.94,1597.59C1309.59,1568.7 1309.15,1532.74 1308.83,1506.61C1308.56,1485.21 1295.8,1465.95 1276.2,1457.36C1269.58,1454.45 1262.99,1451.57 1257.57,1449.19C1249.27,1445.55 1241.99,1439.93 1236.38,1432.81C1228.89,1423.31 1217.72,1409.13 1208.01,1396.82C1201.84,1388.99 1196.84,1380.38 1193.11,1371.26L1073.53,1371.26Z" 
            style="fill:#FCBBA1;stroke:black;stroke-width:2.94px;"/>
        </g>
        <g transform="matrix(1.45069,-0.837556,0.837556,1.45069,-961.457,959.368)">
            <path id="ll-c" d="M1193.11,1371.26C1189.02,1361.22 1186.46,1350.57 1185.58,1339.65C1182.04,1295.78 1176.13,1222.3 1176.13,1222.3L1090.52,1222.3C1090.52,1222.3 1084.6,1295.78 1081.06,1339.65C1080.18,1350.57 1077.63,1361.22 1073.53,1371.26L1193.11,1371.26Z" 
            style="fill:#FCBBA1;stroke:black;stroke-width:2.49px;"/>
        </g>
        <g transform="matrix(1.45069,-0.837556,0.837556,1.45069,-961.457,959.368)">
            <path id="ll-p" d="M1073.53,1371.26C1069.8,1380.38 1064.8,1388.99 1058.63,1396.82C1048.92,1409.13 1037.75,1423.31 1030.26,1432.81C1024.65,1439.93 1017.37,1445.55 1009.07,1449.19C1003.66,1451.57 997.06,1454.45 990.437,1457.36C970.837,1465.95 958.077,1485.21 957.815,1506.61C957.495,1532.74 957.054,1568.7 956.701,1597.59C956.329,1627.94 971.178,1656.46 996.257,1673.57C996.257,1673.57 996.257,1673.57 996.258,1673.57C1078.93,1729.96 1187.71,1729.96 1270.38,1673.57C1270.38,1673.57 1270.38,1673.57 1270.38,1673.57C1295.46,1656.46 1310.31,1627.94 1309.94,1597.59C1309.59,1568.7 1309.15,1532.74 1308.83,1506.61C1308.56,1485.21 1295.8,1465.95 1276.2,1457.36C1269.58,1454.45 1262.99,1451.57 1257.57,1449.19C1249.27,1445.55 1241.99,1439.93 1236.38,1432.81C1228.89,1423.31 1217.72,1409.13 1208.01,1396.82C1201.84,1388.99 1196.84,1380.38 1193.11,1371.26L1073.53,1371.26Z" 
            style="fill:#FCBBA1;stroke:black;stroke-width:2.49px;"/>
        </g>
    </g>
</svg>
